<svg width="14" height="14" viewBox="0 0 14 14" fill="none" xmlns="http://www.w3.org/2000/svg">
<path d="M12.25 5.8333H10.3209L7.84351 0.911721C7.69292 0.635742 7.47076 0.405429 7.20038 0.24499C6.93001 0.0845513 6.6214 -8.72454e-05 6.30701 -2.90544e-05H6.20084C5.96277 -0.000357831 5.72789 0.0547248 5.51478 0.16086C5.30167 0.266996 5.11619 0.421271 4.97301 0.611479C4.82983 0.801686 4.73289 1.02261 4.68984 1.25676C4.6468 1.49091 4.65884 1.73186 4.72501 1.96055L5.84968 5.8333H4.45901C4.22903 5.83391 4.00122 5.7889 3.78875 5.70089C3.57628 5.61288 3.38337 5.48361 3.22118 5.32056L2.39459 4.49164C2.18332 4.28058 1.91031 4.14232 1.61515 4.0969C1.31999 4.05148 1.01804 4.10127 0.753094 4.23905C0.589153 4.32364 0.444243 4.44085 0.327275 4.5835C0.210306 4.72615 0.12375 4.89122 0.0729269 5.06855C0.0167179 5.25882 -0.000475184 5.45847 0.0223794 5.65555C0.0452341 5.85262 0.107665 6.04304 0.205927 6.21539L1.14743 7.8633C1.40302 8.30932 1.77169 8.68006 2.21627 8.93814C2.66085 9.19623 3.16562 9.33253 3.67968 9.3333H5.84443L4.87143 11.9274C4.78432 12.1594 4.75475 12.4091 4.78523 12.655C4.81572 12.901 4.90536 13.1359 5.04647 13.3396C5.18759 13.5433 5.37598 13.7098 5.59551 13.8249C5.81504 13.9399 6.05918 13.9999 6.30701 14C6.61597 14.0016 6.91975 13.9207 7.18691 13.7655C7.45408 13.6103 7.67493 13.3866 7.82659 13.1174L10.1873 9.3333H12.25C12.7141 9.3333 13.1593 9.14893 13.4874 8.82074C13.8156 8.49255 14 8.04743 14 7.5833C14 7.11918 13.8156 6.67406 13.4874 6.34587C13.1593 6.01768 12.7141 5.8333 12.25 5.8333ZM5.84793 1.63622C5.8321 1.58149 5.82922 1.52383 5.8395 1.4678C5.84979 1.41176 5.87296 1.35889 5.90718 1.31335C5.94141 1.2678 5.98576 1.23084 6.03672 1.20538C6.08769 1.17992 6.14387 1.16666 6.20084 1.16664H6.30701C6.40872 1.16576 6.50886 1.19179 6.59727 1.24209C6.68568 1.29239 6.75921 1.36517 6.81043 1.45305L9.01543 5.8333H7.06418L5.84793 1.63622ZM12.25 8.16664H9.8636C9.7646 8.1667 9.66726 8.19195 9.58072 8.24002C9.49418 8.28808 9.4213 8.35738 9.36893 8.44139L6.81918 12.5294C6.76898 12.6214 6.69493 12.6982 6.6048 12.7516C6.51468 12.8051 6.41181 12.8333 6.30701 12.8333C6.24771 12.8334 6.18929 12.819 6.13676 12.7915C6.08422 12.764 6.03915 12.7241 6.00542 12.6754C5.97168 12.6266 5.95029 12.5704 5.94308 12.5115C5.93587 12.4527 5.94305 12.3929 5.96401 12.3375L7.23218 8.95414C7.26515 8.86589 7.27626 8.77096 7.26455 8.67749C7.25285 8.58401 7.21867 8.49475 7.16496 8.41736C7.11124 8.33997 7.03958 8.27673 6.9561 8.23307C6.87262 8.18941 6.7798 8.16661 6.6856 8.16664H3.67968C3.37161 8.16613 3.06914 8.0843 2.80283 7.92943C2.53652 7.77457 2.31581 7.55214 2.16301 7.28464L1.21859 5.63614C1.19883 5.60099 1.18623 5.56227 1.18152 5.52222C1.17682 5.48217 1.1801 5.44158 1.19118 5.4028C1.19702 5.37696 1.20825 5.35264 1.22413 5.33143C1.24001 5.31022 1.26019 5.2926 1.28334 5.27972C1.3193 5.26063 1.3593 5.25043 1.40001 5.24997C1.46262 5.2504 1.52262 5.27507 1.56743 5.3188L2.39401 6.14539C2.66459 6.41732 2.98643 6.63287 3.34089 6.77956C3.69536 6.92625 4.0754 7.00117 4.45901 6.99997H12.25C12.4047 6.99997 12.5531 7.06143 12.6625 7.17083C12.7719 7.28022 12.8333 7.4286 12.8333 7.5833C12.8333 7.73801 12.7719 7.88639 12.6625 7.99578C12.5531 8.10518 12.4047 8.16664 12.25 8.16664Z" fill="white" stroke="white" stroke-width="0.2"/>
</svg>
