<svg width="12" height="14" viewBox="0 0 12 14" fill="none" xmlns="http://www.w3.org/2000/svg">
<path fill-rule="evenodd" clip-rule="evenodd" d="M10.5696 1.16881H6.56963V0.582976C6.56963 0.260053 6.31491 0 5.9986 0C5.6823 0 5.42757 0.260053 5.42757 0.582976V1.16881H1.42757C0.641008 1.16881 0 1.82323 0 2.62625V12.5426C0 13.3456 0.641008 14 1.42757 14H10.5724C11.359 14 12 13.3456 12 12.5426V2.62625C12 1.82323 11.359 1.16881 10.5696 1.16881ZM8.71659 2.33476L8.18195 3.74362H3.81526L3.28062 2.33476H8.71659ZM10.8551 12.5454C10.8551 12.7055 10.7264 12.8369 10.5696 12.8369H1.42757C1.27082 12.8369 1.14206 12.7055 1.14206 12.5454V2.62911C1.14206 2.46908 1.27082 2.33762 1.42757 2.33762H2.05458L2.88873 4.54093C2.97271 4.76669 3.18544 4.91529 3.42057 4.91529H8.57383C8.80896 4.91529 9.02169 4.76669 9.10567 4.54093L9.93982 2.33762H10.5668C10.7236 2.33762 10.8523 2.46908 10.8523 2.62911V12.5454H10.8551ZM8.69366 7.76733H3.46483C3.14852 7.76733 2.8938 7.50728 2.8938 7.18436C2.8938 6.86143 3.14852 6.60138 3.46483 6.60138H8.69366C9.00996 6.60138 9.26469 6.86143 9.26469 7.18436C9.26469 7.50728 9.00716 7.76733 8.69366 7.76733ZM3.46483 10.7508H8.69366C9.00716 10.7508 9.26469 10.4907 9.26469 10.1678C9.26469 9.84489 9.00996 9.58484 8.69366 9.58484H3.46483C3.14852 9.58484 2.8938 9.84489 2.8938 10.1678C2.8938 10.4907 3.14852 10.7508 3.46483 10.7508Z" fill="#6F7C89"/>
</svg>
