<svg width="14" height="14" viewBox="0 0 14 14" fill="none" xmlns="http://www.w3.org/2000/svg">
<path d="M12.1917 2.50312C11.9862 1.94092 11.6131 1.45534 11.1228 1.11201C10.6325 0.768683 10.0486 0.584158 9.45 0.583374H4.55C3.95143 0.584158 3.36753 0.768683 2.87721 1.11201C2.38689 1.45534 2.01379 1.94092 1.80834 2.50312L0.233336 6.83554C0.0784315 7.26224 -0.000539427 7.71276 2.77309e-06 8.16671V8.75004C0.00104363 9.20084 0.107005 9.64521 0.309499 10.048C0.511993 10.4507 0.80546 10.8008 1.16667 11.0705C1.16667 11.0752 1.16667 11.0787 1.16667 11.0834V12.25C1.16667 12.7142 1.35104 13.1593 1.67923 13.4875C2.00742 13.8157 2.45254 14 2.91667 14C3.3808 14 3.82592 13.8157 4.15411 13.4875C4.4823 13.1593 4.66667 12.7142 4.66667 12.25V11.6667H9.33334V12.25C9.33334 12.7142 9.51771 13.1593 9.8459 13.4875C10.1741 13.8157 10.6192 14 11.0833 14C11.5475 14 11.9926 13.8157 12.3208 13.4875C12.649 13.1593 12.8333 12.7142 12.8333 12.25V11.0834C12.8333 11.0787 12.8333 11.0752 12.8333 11.0705C13.1945 10.8008 13.488 10.4507 13.6905 10.048C13.893 9.64521 13.999 9.20084 14 8.75004V8.16671C14.0006 7.71295 13.9216 7.2626 13.7667 6.83612L12.1917 2.50312ZM2.90617 2.90212C3.02951 2.56506 3.25322 2.2739 3.54714 2.0679C3.84107 1.86191 4.19108 1.75097 4.55 1.75004H9.45C9.80913 1.75073 10.1594 1.86156 10.4536 2.06757C10.7477 2.27358 10.9716 2.56487 11.095 2.90212L12.3713 6.41671H1.62809L2.90617 2.90212ZM3.5 12.25C3.5 12.4047 3.43854 12.5531 3.32915 12.6625C3.21975 12.7719 3.07138 12.8334 2.91667 12.8334C2.76196 12.8334 2.61359 12.7719 2.50419 12.6625C2.39479 12.5531 2.33334 12.4047 2.33334 12.25V11.6084C2.52533 11.6474 2.72076 11.6669 2.91667 11.6667H3.5V12.25ZM11.6667 12.25C11.6667 12.4047 11.6052 12.5531 11.4958 12.6625C11.3864 12.7719 11.238 12.8334 11.0833 12.8334C10.9286 12.8334 10.7803 12.7719 10.6709 12.6625C10.5615 12.5531 10.5 12.4047 10.5 12.25V11.6667H11.0833C11.2792 11.6669 11.4747 11.6474 11.6667 11.6084V12.25ZM12.8333 8.75004C12.8333 9.21417 12.649 9.65929 12.3208 9.98748C11.9926 10.3157 11.5475 10.5 11.0833 10.5H2.91667C2.45254 10.5 2.00742 10.3157 1.67923 9.98748C1.35104 9.65929 1.16667 9.21417 1.16667 8.75004V8.16671C1.16905 7.97028 1.19271 7.7747 1.23725 7.58337H2.33334V8.16671C2.33334 8.32142 2.39479 8.46979 2.50419 8.57919C2.61359 8.68858 2.76196 8.75004 2.91667 8.75004C3.07138 8.75004 3.21975 8.68858 3.32915 8.57919C3.43854 8.46979 3.5 8.32142 3.5 8.16671V7.58337H10.5V8.16671C10.5 8.32142 10.5615 8.46979 10.6709 8.57919C10.7803 8.68858 10.9286 8.75004 11.0833 8.75004C11.238 8.75004 11.3864 8.68858 11.4958 8.57919C11.6052 8.46979 11.6667 8.32142 11.6667 8.16671V7.58337H12.7628C12.8073 7.77469 12.831 7.97028 12.8333 8.16671V8.75004Z" fill="#EB7E40" stroke="#EB7E40" stroke-width="0.2"/>
</svg>
