<svg width="16" height="16" viewBox="0 0 16 16" fill="none" xmlns="http://www.w3.org/2000/svg">
<g clip-path="url(#clip0_2817_5351)">
<path d="M10.6665 5.33386C10.5414 5.20888 10.3719 5.13867 10.1951 5.13867C10.0184 5.13867 9.84881 5.20888 9.7238 5.33386L7.9998 7.05786L6.2758 5.33386C6.15007 5.21242 5.98167 5.14523 5.80687 5.14675C5.63207 5.14827 5.46486 5.21838 5.34126 5.34198C5.21765 5.46559 5.14754 5.6328 5.14602 5.8076C5.1445 5.98239 5.2117 6.15079 5.33314 6.27653L7.05713 8.00053L5.33314 9.72453C5.2117 9.85026 5.1445 10.0187 5.14602 10.1935C5.14754 10.3683 5.21765 10.5355 5.34126 10.6591C5.46486 10.7827 5.63207 10.8528 5.80687 10.8543C5.98167 10.8558 6.15007 10.7886 6.2758 10.6672L7.9998 8.9432L9.7238 10.6672C9.84953 10.7886 10.0179 10.8558 10.1927 10.8543C10.3675 10.8528 10.5347 10.7827 10.6583 10.6591C10.7819 10.5355 10.8521 10.3683 10.8536 10.1935C10.8551 10.0187 10.7879 9.85026 10.6665 9.72453L8.94246 8.00053L10.6665 6.27653C10.7914 6.15151 10.8617 5.98197 10.8617 5.8052C10.8617 5.62842 10.7914 5.45888 10.6665 5.33386Z" fill="#030A0F"/>
<path d="M8 0C6.41775 0 4.87104 0.469192 3.55544 1.34824C2.23985 2.22729 1.21447 3.47672 0.608967 4.93853C0.00346629 6.40034 -0.15496 8.00887 0.153721 9.56072C0.462403 11.1126 1.22433 12.538 2.34315 13.6569C3.46197 14.7757 4.88743 15.5376 6.43928 15.8463C7.99113 16.155 9.59966 15.9965 11.0615 15.391C12.5233 14.7855 13.7727 13.7602 14.6518 12.4446C15.5308 11.129 16 9.58225 16 8C15.9977 5.87897 15.1541 3.84547 13.6543 2.34568C12.1545 0.845886 10.121 0.00229405 8 0V0ZM8 14.6667C6.68146 14.6667 5.39253 14.2757 4.2962 13.5431C3.19987 12.8106 2.34539 11.7694 1.84081 10.5512C1.33622 9.33305 1.2042 7.99261 1.46144 6.6994C1.71867 5.40619 2.35361 4.21831 3.28596 3.28596C4.21831 2.35361 5.4062 1.71867 6.6994 1.46143C7.99261 1.2042 9.33305 1.33622 10.5512 1.8408C11.7694 2.34539 12.8106 3.19987 13.5431 4.2962C14.2757 5.39253 14.6667 6.68146 14.6667 8C14.6647 9.76752 13.9617 11.4621 12.7119 12.7119C11.4621 13.9617 9.76752 14.6647 8 14.6667Z" fill="#030A0F"/>
</g>
<defs>
<clipPath id="clip0_2817_5351">
<rect width="16" height="16" fill="white"/>
</clipPath>
</defs>
</svg>
