<svg width="16" height="16" viewBox="0 0 16 16" fill="none" xmlns="http://www.w3.org/2000/svg">
<mask id="path-1-inside-1_2544_342" fill="white">
<path d="M15.805 0.195679C15.68 0.0706986 15.5105 0.000488281 15.3337 0.000488281C15.1569 0.000488281 14.9874 0.0706986 14.8623 0.195679L8.00035 7.05768L1.13835 0.195679C1.01333 0.0706986 0.843789 0.000488281 0.667013 0.000488281C0.490236 0.000488281 0.320698 0.0706986 0.195679 0.195679C0.0706986 0.320698 0.000488281 0.490236 0.000488281 0.667013C0.000488281 0.843789 0.0706986 1.01333 0.195679 1.13835L7.05768 8.00035L0.195679 14.8623C0.0706986 14.9874 0.000488281 15.1569 0.000488281 15.3337C0.000488281 15.5105 0.0706986 15.68 0.195679 15.805C0.320698 15.93 0.490236 16.0002 0.667013 16.0002C0.843789 16.0002 1.01333 15.93 1.13835 15.805L8.00035 8.94301L14.8623 15.805C14.9874 15.93 15.1569 16.0002 15.3337 16.0002C15.5105 16.0002 15.68 15.93 15.805 15.805C15.93 15.68 16.0002 15.5105 16.0002 15.3337C16.0002 15.1569 15.93 14.9874 15.805 14.8623L8.94301 8.00035L15.805 1.13835C15.93 1.01333 16.0002 0.843789 16.0002 0.667013C16.0002 0.490236 15.93 0.320698 15.805 0.195679Z"/>
</mask>
<path d="M15.805 0.195679C15.68 0.0706986 15.5105 0.000488281 15.3337 0.000488281C15.1569 0.000488281 14.9874 0.0706986 14.8623 0.195679L8.00035 7.05768L1.13835 0.195679C1.01333 0.0706986 0.843789 0.000488281 0.667013 0.000488281C0.490236 0.000488281 0.320698 0.0706986 0.195679 0.195679C0.0706986 0.320698 0.000488281 0.490236 0.000488281 0.667013C0.000488281 0.843789 0.0706986 1.01333 0.195679 1.13835L7.05768 8.00035L0.195679 14.8623C0.0706986 14.9874 0.000488281 15.1569 0.000488281 15.3337C0.000488281 15.5105 0.0706986 15.68 0.195679 15.805C0.320698 15.93 0.490236 16.0002 0.667013 16.0002C0.843789 16.0002 1.01333 15.93 1.13835 15.805L8.00035 8.94301L14.8623 15.805C14.9874 15.93 15.1569 16.0002 15.3337 16.0002C15.5105 16.0002 15.68 15.93 15.805 15.805C15.93 15.68 16.0002 15.5105 16.0002 15.3337C16.0002 15.1569 15.93 14.9874 15.805 14.8623L8.94301 8.00035L15.805 1.13835C15.93 1.01333 16.0002 0.843789 16.0002 0.667013C16.0002 0.490236 15.93 0.320698 15.805 0.195679Z" fill="#030A0F"/>
<path d="M14.8623 0.195679L13.8018 -0.865141L13.8017 -0.864981L14.8623 0.195679ZM8.00035 7.05768L6.93969 8.11834L8.00035 9.179L9.06101 8.11834L8.00035 7.05768ZM1.13835 0.195679L2.19901 -0.864981L2.19885 -0.865141L1.13835 0.195679ZM0.667013 0.000488281V-1.49951V0.000488281ZM0.195679 1.13835L-0.865141 2.19885L-0.864981 2.19901L0.195679 1.13835ZM7.05768 8.00035L8.11834 9.06101L9.179 8.00035L8.11834 6.93969L7.05768 8.00035ZM0.195679 14.8623L-0.864981 13.8017L-0.865141 13.8018L0.195679 14.8623ZM0.000488281 15.3337H-1.49951H0.000488281ZM1.13835 15.805L2.19885 16.8658L2.19901 16.8657L1.13835 15.805ZM8.00035 8.94301L9.06101 7.88235L8.00035 6.82169L6.93969 7.88235L8.00035 8.94301ZM14.8623 15.805L13.8017 16.8657L13.8018 16.8658L14.8623 15.805ZM15.805 15.805L16.8655 16.8658L16.8658 16.8655L15.805 15.805ZM15.805 14.8623L16.8658 13.8018L16.8657 13.8017L15.805 14.8623ZM8.94301 8.00035L7.88235 6.93969L6.82169 8.00035L7.88235 9.06101L8.94301 8.00035ZM15.805 1.13835L16.8657 2.19901L16.8658 2.19885L15.805 1.13835ZM16.8655 -0.865141C16.4592 -1.27133 15.9082 -1.49951 15.3337 -1.49951V1.50049C15.1127 1.50049 14.9008 1.41273 14.7445 1.2565L16.8655 -0.865141ZM15.3337 -1.49951C14.7592 -1.49951 14.2082 -1.27133 13.8018 -0.865141L15.9228 1.2565C15.7666 1.41273 15.5546 1.50049 15.3337 1.50049V-1.49951ZM13.8017 -0.864981L6.93969 5.99702L9.06101 8.11834L15.923 1.25634L13.8017 -0.864981ZM9.06101 5.99702L2.19901 -0.864981L0.0776858 1.25634L6.93969 8.11834L9.06101 5.99702ZM2.19885 -0.865141C1.79254 -1.27133 1.24153 -1.49951 0.667013 -1.49951V1.50049C0.446042 1.50049 0.234119 1.41273 0.077846 1.2565L2.19885 -0.865141ZM0.667013 -1.49951C0.0924901 -1.49951 -0.458511 -1.27133 -0.864821 -0.865141L1.25618 1.2565C1.09991 1.41273 0.887983 1.50049 0.667013 1.50049V-1.49951ZM-0.865141 -0.864821C-1.27133 -0.458511 -1.49951 0.0924901 -1.49951 0.667013H1.50049C1.50049 0.887983 1.41273 1.09991 1.2565 1.25618L-0.865141 -0.864821ZM-1.49951 0.667013C-1.49951 1.24153 -1.27133 1.79254 -0.865141 2.19885L1.2565 0.077846C1.41273 0.234119 1.50049 0.446042 1.50049 0.667013H-1.49951ZM-0.864981 2.19901L5.99702 9.06101L8.11834 6.93969L1.25634 0.0776858L-0.864981 2.19901ZM5.99702 6.93969L-0.864981 13.8017L1.25634 15.923L8.11834 9.06101L5.99702 6.93969ZM-0.865141 13.8018C-1.27133 14.2082 -1.49951 14.7592 -1.49951 15.3337H1.50049C1.50049 15.5546 1.41273 15.7666 1.2565 15.9228L-0.865141 13.8018ZM-1.49951 15.3337C-1.49951 15.9082 -1.27133 16.4592 -0.865141 16.8655L1.2565 14.7445C1.41273 14.9008 1.50049 15.1127 1.50049 15.3337H-1.49951ZM-0.864821 16.8658C-0.458509 17.272 0.0924933 17.5002 0.667013 17.5002V14.5002C0.88798 14.5002 1.0999 14.588 1.25618 14.7442L-0.864821 16.8658ZM0.667013 17.5002C1.24153 17.5002 1.79253 17.272 2.19885 16.8658L0.077846 14.7442C0.234121 14.588 0.446046 14.5002 0.667013 14.5002V17.5002ZM2.19901 16.8657L9.06101 10.0037L6.93969 7.88235L0.0776858 14.7444L2.19901 16.8657ZM6.93969 10.0037L13.8017 16.8657L15.923 14.7444L9.06101 7.88235L6.93969 10.0037ZM13.8018 16.8658C14.2082 17.272 14.7592 17.5002 15.3337 17.5002V14.5002C15.5546 14.5002 15.7666 14.588 15.9228 14.7442L13.8018 16.8658ZM15.3337 17.5002C15.9082 17.5002 16.4592 17.272 16.8655 16.8658L14.7445 14.7442C14.9008 14.588 15.1127 14.5002 15.3337 14.5002V17.5002ZM16.8658 16.8655C17.272 16.4592 17.5002 15.9082 17.5002 15.3337H14.5002C14.5002 15.1127 14.588 14.9008 14.7442 14.7445L16.8658 16.8655ZM17.5002 15.3337C17.5002 14.7592 17.272 14.2082 16.8658 13.8018L14.7442 15.9228C14.588 15.7666 14.5002 15.5546 14.5002 15.3337H17.5002ZM16.8657 13.8017L10.0037 6.93969L7.88235 9.06101L14.7444 15.923L16.8657 13.8017ZM10.0037 9.06101L16.8657 2.19901L14.7444 0.0776858L7.88235 6.93969L10.0037 9.06101ZM16.8658 2.19885C17.272 1.79253 17.5002 1.24153 17.5002 0.667013H14.5002C14.5002 0.446046 14.588 0.234121 14.7442 0.077846L16.8658 2.19885ZM17.5002 0.667013C17.5002 0.0924933 17.272 -0.458509 16.8658 -0.864821L14.7442 1.25618C14.588 1.0999 14.5002 0.88798 14.5002 0.667013H17.5002Z" fill="#030A0F" mask="url(#path-1-inside-1_2544_342)"/>
</svg>
