<svg width="14" height="14" viewBox="0 0 14 14" fill="none" xmlns="http://www.w3.org/2000/svg">
<path fill-rule="evenodd" clip-rule="evenodd" d="M11.1017 8.67995C11.1822 8.36801 11.5004 8.18043 11.8123 8.26097C12.438 8.42253 12.9924 8.78733 13.3883 9.29808C13.7842 9.80883 13.9993 10.4366 13.9998 11.0828L13.9998 12.25C13.9998 12.5721 13.7386 12.8333 13.4165 12.8333C13.0943 12.8333 12.8331 12.5721 12.8331 12.25L12.8331 11.0837C12.8331 11.0837 12.8331 11.0838 12.8331 11.0837C12.8328 10.696 12.7038 10.3193 12.4662 10.0129C12.2287 9.70641 11.8961 9.48753 11.5206 9.39059C11.2087 9.31005 11.0211 8.99189 11.1017 8.67995Z" fill="#6F7C89"/>
<path fill-rule="evenodd" clip-rule="evenodd" d="M0.854272 9.0209C1.40125 8.47392 2.14312 8.16663 2.91667 8.16663H7.58333C8.35688 8.16663 9.09875 8.47392 9.64573 9.0209C10.1927 9.56788 10.5 10.3097 10.5 11.0833V12.25C10.5 12.5721 10.2388 12.8333 9.91667 12.8333C9.5945 12.8333 9.33333 12.5721 9.33333 12.25V11.0833C9.33333 10.6192 9.14896 10.174 8.82077 9.84586C8.49258 9.51767 8.04746 9.33329 7.58333 9.33329H2.91667C2.45254 9.33329 2.00742 9.51767 1.67923 9.84586C1.35104 10.174 1.16667 10.6192 1.16667 11.0833V12.25C1.16667 12.5721 0.905499 12.8333 0.583333 12.8333C0.261167 12.8333 0 12.5721 0 12.25V11.0833C0 10.3097 0.307291 9.56788 0.854272 9.0209Z" fill="#6F7C89"/>
<path fill-rule="evenodd" clip-rule="evenodd" d="M8.76837 1.68109C8.84828 1.369 9.16606 1.18077 9.47816 1.26068C10.1055 1.42132 10.6616 1.78619 11.0587 2.29778C11.4558 2.80937 11.6714 3.43858 11.6714 4.0862C11.6714 4.73382 11.4558 5.36303 11.0587 5.87462C10.6616 6.38621 10.1055 6.75108 9.47816 6.91172C9.16606 6.99163 8.84828 6.8034 8.76837 6.49131C8.68846 6.17921 8.87669 5.86142 9.18878 5.78151C9.56522 5.68513 9.89886 5.46621 10.1371 5.15925C10.3754 4.8523 10.5047 4.47477 10.5047 4.0862C10.5047 3.69763 10.3754 3.3201 10.1371 3.01315C9.89886 2.70619 9.56522 2.48727 9.18878 2.39089C8.87669 2.31098 8.68846 1.99319 8.76837 1.68109Z" fill="#6F7C89"/>
<path fill-rule="evenodd" clip-rule="evenodd" d="M5.25016 2.33329C4.28366 2.33329 3.50016 3.11679 3.50016 4.08329C3.50016 5.04979 4.28366 5.83329 5.25016 5.83329C6.21666 5.83329 7.00016 5.04979 7.00016 4.08329C7.00016 3.11679 6.21666 2.33329 5.25016 2.33329ZM2.3335 4.08329C2.3335 2.47246 3.63933 1.16663 5.25016 1.16663C6.86099 1.16663 8.16683 2.47246 8.16683 4.08329C8.16683 5.69412 6.86099 6.99996 5.25016 6.99996C3.63933 6.99996 2.3335 5.69412 2.3335 4.08329Z" fill="#6F7C89"/>
</svg>
