<svg width="16" height="16" viewBox="0 0 16 16" fill="none" xmlns="http://www.w3.org/2000/svg">
<g clip-path="url(#clip0_2766_1361)">
<mask id="path-1-inside-1_2766_1361" fill="white">
<path d="M6.5854 12.0813C6.77114 12.2672 6.99167 12.4146 7.23441 12.5152C7.47714 12.6158 7.73732 12.6676 8.00007 12.6676C8.26282 12.6676 8.523 12.6158 8.76573 12.5152C9.00847 12.4146 9.229 12.2672 9.41474 12.0813L11.5554 9.94067C11.6702 9.81373 11.7317 9.64752 11.7273 9.47644C11.723 9.30536 11.6529 9.14253 11.5318 9.02165C11.4107 8.90077 11.2477 8.8311 11.0766 8.82707C10.9055 8.82304 10.7394 8.88496 10.6127 9L8.66207 10.9513L8.66674 0.666667C8.66674 0.489856 8.5965 0.320286 8.47147 0.195262C8.34645 0.0702379 8.17688 0 8.00007 0V0C7.82326 0 7.65369 0.0702379 7.52866 0.195262C7.40364 0.320286 7.3334 0.489856 7.3334 0.666667L7.3274 10.9387L5.3874 9C5.26231 8.875 5.09268 8.8048 4.91583 8.80486C4.73899 8.80493 4.56941 8.87524 4.4444 9.00033C4.3194 9.12543 4.24921 9.29506 4.24927 9.4719C4.24933 9.64875 4.31964 9.81833 4.44474 9.94333L6.5854 12.0813Z"/>
</mask>
<path d="M6.5854 12.0813C6.77114 12.2672 6.99167 12.4146 7.23441 12.5152C7.47714 12.6158 7.73732 12.6676 8.00007 12.6676C8.26282 12.6676 8.523 12.6158 8.76573 12.5152C9.00847 12.4146 9.229 12.2672 9.41474 12.0813L11.5554 9.94067C11.6702 9.81373 11.7317 9.64752 11.7273 9.47644C11.723 9.30536 11.6529 9.14253 11.5318 9.02165C11.4107 8.90077 11.2477 8.8311 11.0766 8.82707C10.9055 8.82304 10.7394 8.88496 10.6127 9L8.66207 10.9513L8.66674 0.666667C8.66674 0.489856 8.5965 0.320286 8.47147 0.195262C8.34645 0.0702379 8.17688 0 8.00007 0V0C7.82326 0 7.65369 0.0702379 7.52866 0.195262C7.40364 0.320286 7.3334 0.489856 7.3334 0.666667L7.3274 10.9387L5.3874 9C5.26231 8.875 5.09268 8.8048 4.91583 8.80486C4.73899 8.80493 4.56941 8.87524 4.4444 9.00033C4.3194 9.12543 4.24921 9.29506 4.24927 9.4719C4.24933 9.64875 4.31964 9.81833 4.44474 9.94333L6.5854 12.0813Z" fill="#030A0F"/>
<path d="M6.5854 12.0813L7.6464 11.021L7.6454 11.02L6.5854 12.0813ZM9.41474 12.0813L8.35408 11.0207L8.35374 11.021L9.41474 12.0813ZM11.5554 9.94067L12.6161 11.0013L12.6427 10.9747L12.668 10.9467L11.5554 9.94067ZM10.6127 9L9.60437 7.88951L9.57753 7.91388L9.55189 7.93952L10.6127 9ZM8.66207 10.9513L7.16207 10.9507L7.16042 14.5752L9.72291 12.0118L8.66207 10.9513ZM8.66674 0.666667L10.1667 0.667347V0.666667H8.66674ZM8.00007 0V-1.5H6.50007V0H8.00007ZM8.00007 0V1.5H9.50007V0H8.00007ZM7.3334 0.666667L8.8334 0.667543V0.666667H7.3334ZM7.3274 10.9387L6.26711 11.9997L8.82529 14.5561L8.8274 10.9395L7.3274 10.9387ZM5.3874 9L6.4477 7.93898L6.44769 7.93897L5.3874 9ZM4.44474 9.94333L3.38445 11.0044L3.38474 11.0047L4.44474 9.94333ZM5.5244 13.1417C5.84944 13.4669 6.23537 13.7249 6.66016 13.9009L7.80865 11.1295C7.74797 11.1043 7.69284 11.0675 7.6464 11.021L5.5244 13.1417ZM6.66016 13.9009C7.08494 14.077 7.54025 14.1676 8.00007 14.1676V11.1676C7.93438 11.1676 7.86934 11.1546 7.80865 11.1295L6.66016 13.9009ZM8.00007 14.1676C8.45989 14.1676 8.9152 14.077 9.33998 13.9009L8.19148 11.1295C8.1308 11.1546 8.06576 11.1676 8.00007 11.1676V14.1676ZM9.33998 13.9009C9.76477 13.7249 10.1507 13.4669 10.4757 13.1417L8.35374 11.021C8.3073 11.0675 8.25217 11.1043 8.19148 11.1295L9.33998 13.9009ZM10.4754 13.142L12.6161 11.0013L10.4947 8.88001L8.35408 11.0207L10.4754 13.142ZM12.668 10.9467C13.041 10.5341 13.2411 9.99393 13.2269 9.43793L10.2278 9.51494C10.2224 9.3011 10.2993 9.09333 10.4428 8.93466L12.668 10.9467ZM13.2269 9.43793C13.2126 8.88193 12.985 8.35272 12.5913 7.95986L10.4723 10.0834C10.3209 9.93233 10.2333 9.72879 10.2278 9.51494L13.2269 9.43793ZM12.5913 7.95986C12.1976 7.567 11.6679 7.34058 11.1119 7.32749L11.0413 10.3267C10.8274 10.3216 10.6237 10.2345 10.4723 10.0834L12.5913 7.95986ZM11.1119 7.32749C10.5559 7.31439 10.0161 7.51562 9.60437 7.88951L11.6211 10.1105C11.4627 10.2543 11.2551 10.3317 11.0413 10.3267L11.1119 7.32749ZM9.55189 7.93952L7.60123 9.89085L9.72291 12.0118L11.6736 10.0605L9.55189 7.93952ZM10.1621 10.952L10.1667 0.667347L7.16674 0.665986L7.16207 10.9507L10.1621 10.952ZM10.1667 0.666667C10.1667 0.0920302 9.93846 -0.45907 9.53213 -0.865398L7.41081 1.25592C7.25453 1.09964 7.16674 0.887681 7.16674 0.666667H10.1667ZM9.53213 -0.865398C9.1258 -1.27173 8.57471 -1.5 8.00007 -1.5V1.5C7.77905 1.5 7.56709 1.4122 7.41081 1.25592L9.53213 -0.865398ZM6.50007 0V0H9.50007V0H6.50007ZM8.00007 -1.5C7.42543 -1.5 6.87433 -1.27173 6.468 -0.865398L8.58932 1.25592C8.43304 1.4122 8.22108 1.5 8.00007 1.5V-1.5ZM6.468 -0.865398C6.06168 -0.45907 5.8334 0.0920302 5.8334 0.666667H8.8334C8.8334 0.887681 8.7456 1.09964 8.58932 1.25592L6.468 -0.865398ZM5.8334 0.665791L5.8274 10.9378L8.8274 10.9395L8.8334 0.667543L5.8334 0.665791ZM8.3877 9.87764L6.4477 7.93898L4.32711 10.061L6.26711 11.9997L8.3877 9.87764ZM6.44769 7.93897C6.04119 7.53275 5.48997 7.30466 4.9153 7.30487L4.91636 10.3049C4.69539 10.3049 4.48343 10.2172 4.32712 10.061L6.44769 7.93897ZM4.9153 7.30487C4.34063 7.30507 3.78958 7.53355 3.38337 7.94005L5.50544 10.0606C5.34924 10.2169 5.13734 10.3048 4.91636 10.3049L4.9153 7.30487ZM3.38337 7.94005C2.97716 8.34655 2.74906 8.89776 2.74927 9.47243L5.74927 9.47137C5.74935 9.69235 5.66164 9.90431 5.50544 10.0606L3.38337 7.94005ZM2.74927 9.47243C2.74947 10.0471 2.97795 10.5982 3.38445 11.0044L5.50502 8.8823C5.66133 9.0385 5.74919 9.25039 5.74927 9.47137L2.74927 9.47243ZM3.38474 11.0047L5.5254 13.1427L7.6454 11.02L5.50473 8.88201L3.38474 11.0047Z" fill="#030A0F" mask="url(#path-1-inside-1_2766_1361)"/>
<path d="M15.3333 10.6666C15.1565 10.6666 14.987 10.7369 14.8619 10.8619C14.7369 10.9869 14.6667 11.1565 14.6667 11.3333V14C14.6667 14.1768 14.5964 14.3463 14.4714 14.4714C14.3464 14.5964 14.1768 14.6666 14 14.6666H2C1.82319 14.6666 1.65362 14.5964 1.5286 14.4714C1.40357 14.3463 1.33333 14.1768 1.33333 14V11.3333C1.33333 11.1565 1.2631 10.9869 1.13807 10.8619C1.01305 10.7369 0.843478 10.6666 0.666667 10.6666C0.489856 10.6666 0.320286 10.7369 0.195262 10.8619C0.0702379 10.9869 0 11.1565 0 11.3333L0 14C0 14.5304 0.210714 15.0391 0.585786 15.4142C0.960859 15.7892 1.46957 15.9999 2 15.9999H14C14.5304 15.9999 15.0391 15.7892 15.4142 15.4142C15.7893 15.0391 16 14.5304 16 14V11.3333C16 11.1565 15.9298 10.9869 15.8047 10.8619C15.6797 10.7369 15.5101 10.6666 15.3333 10.6666Z" fill="#030A0F"/>
</g>
<defs>
<clipPath id="clip0_2766_1361">
<rect width="16" height="16" fill="white"/>
</clipPath>
</defs>
</svg>
