<svg width="16" height="16" viewBox="0 0 16 16" fill="none" xmlns="http://www.w3.org/2000/svg">
<path fill-rule="evenodd" clip-rule="evenodd" d="M13.9717 1.23079C13.9717 0.919245 13.7218 0.666687 13.4136 0.666687C13.1053 0.666687 12.8555 0.919245 12.8555 1.23079V7.99992C12.8555 8.31146 13.1053 8.56402 13.4136 8.56402C13.7218 8.56402 13.9717 8.31146 13.9717 7.99992V1.23079ZM5.41341 4.99127C5.41341 4.67973 5.6633 4.42717 5.97154 4.42717H7.44206V1.23079C7.44206 0.919245 7.69194 0.666687 8.00019 0.666687C8.30844 0.666687 8.55832 0.919245 8.55832 1.23079V4.42717H10.031C10.3393 4.42717 10.5892 4.67973 10.5892 4.99127C10.5892 5.30282 10.3393 5.55538 10.031 5.55538H8.01286L8.00019 5.55552L7.98752 5.55538H5.97154C5.6633 5.55538 5.41341 5.30282 5.41341 4.99127ZM8.55832 7.99998C8.55832 7.68843 8.30844 7.43588 8.00019 7.43588C7.69194 7.43588 7.44206 7.68843 7.44206 7.99998V14.7691C7.44206 15.0806 7.69194 15.3332 8.00019 15.3332C8.30844 15.3332 8.55832 15.0806 8.55832 14.7691V7.99998ZM0 9.50407C0 9.19252 0.249885 8.93996 0.558133 8.93996H2.58613H4.61763C4.92588 8.93996 5.17576 9.19252 5.17576 9.50407C5.17576 9.81561 4.92588 10.0682 4.61763 10.0682H3.14426V14.7689C3.14426 15.0805 2.89438 15.333 2.58613 15.333C2.27788 15.333 2.02799 15.0805 2.02799 14.7689V10.0682H0.558133C0.249885 10.0682 0 9.81561 0 9.50407ZM10.8242 11.0086C10.8242 10.6971 11.0741 10.4445 11.3824 10.4445H13.4136H15.4418C15.7501 10.4445 16 10.6971 16 11.0086C16 11.3201 15.7501 11.5727 15.4418 11.5727H13.9717V14.7692C13.9717 15.0808 13.7218 15.3333 13.4136 15.3333C13.1054 15.3333 12.8555 15.0808 12.8555 14.7692V11.5727H11.3824C11.0741 11.5727 10.8242 11.3201 10.8242 11.0086ZM3.14426 1.23079C3.14426 0.919245 2.89438 0.666687 2.58613 0.666687C2.27788 0.666687 2.02799 0.919245 2.02799 1.23079V6.49566C2.02799 6.80721 2.27788 7.05977 2.58613 7.05977C2.89438 7.05977 3.14426 6.80721 3.14426 6.49566V1.23079Z" fill="#030A0F"/>
</svg>
