<svg width="14" height="10" viewBox="0 0 14 10" fill="none" xmlns="http://www.w3.org/2000/svg">
<path d="M11.0833 9.66684H2.91667C2.1434 9.66592 1.40208 9.35833 0.855295 8.81155C0.308514 8.26477 0.00092625 7.52344 0 6.75018L0 3.25018C0.00092625 2.47691 0.308514 1.73559 0.855295 1.18881C1.40208 0.642026 2.1434 0.334438 2.91667 0.333511H11.0833C11.8566 0.334438 12.5979 0.642026 13.1447 1.18881C13.6915 1.73559 13.9991 2.47691 14 3.25018V6.75018C13.9991 7.52344 13.6915 8.26477 13.1447 8.81155C12.5979 9.35833 11.8566 9.66592 11.0833 9.66684ZM2.91667 1.50018C2.45254 1.50018 2.00742 1.68455 1.67923 2.01274C1.35104 2.34093 1.16667 2.78605 1.16667 3.25018V6.75018C1.16667 7.21431 1.35104 7.65943 1.67923 7.98761C2.00742 8.3158 2.45254 8.50018 2.91667 8.50018H11.0833C11.5475 8.50018 11.9926 8.3158 12.3208 7.98761C12.649 7.65943 12.8333 7.21431 12.8333 6.75018V3.25018C12.8333 2.78605 12.649 2.34093 12.3208 2.01274C11.9926 1.68455 11.5475 1.50018 11.0833 1.50018H2.91667ZM7 7.33351C6.53851 7.33351 6.08738 7.19666 5.70367 6.94027C5.31995 6.68388 5.02088 6.31947 4.84428 5.89311C4.66768 5.46674 4.62147 4.99759 4.7115 4.54497C4.80153 4.09234 5.02376 3.67658 5.35008 3.35026C5.67641 3.02394 6.09217 2.80171 6.54479 2.71168C6.99741 2.62165 7.46657 2.66785 7.89293 2.84446C8.31929 3.02106 8.68371 3.32013 8.94009 3.70385C9.19649 4.08756 9.33333 4.53869 9.33333 5.00018C9.33333 5.61902 9.0875 6.21251 8.64992 6.65009C8.21233 7.08768 7.61884 7.33351 7 7.33351ZM7 3.83351C6.76925 3.83351 6.54369 3.90194 6.35183 4.03013C6.15998 4.15832 6.01044 4.34053 5.92214 4.55371C5.83384 4.76689 5.81073 5.00147 5.85575 5.22778C5.90077 5.45409 6.01188 5.66197 6.17504 5.82514C6.3382 5.9883 6.54608 6.09941 6.77239 6.14443C6.99871 6.18944 7.23328 6.16634 7.44646 6.07804C7.65964 5.98974 7.84185 5.8402 7.97005 5.64834C8.09824 5.45649 8.16667 5.23092 8.16667 5.00018C8.16667 4.69076 8.04375 4.39401 7.82496 4.17522C7.60616 3.95643 7.30942 3.83351 7 3.83351ZM2.91667 2.66684C2.80129 2.66684 2.68851 2.70106 2.59258 2.76515C2.49666 2.82925 2.42189 2.92036 2.37774 3.02695C2.33359 3.13354 2.32203 3.25082 2.34454 3.36398C2.36705 3.47714 2.42261 3.58108 2.50419 3.66266C2.58577 3.74424 2.68971 3.79979 2.80286 3.8223C2.91602 3.84481 3.03331 3.83326 3.1399 3.78911C3.24649 3.74496 3.33759 3.67019 3.40169 3.57426C3.46579 3.47833 3.5 3.36555 3.5 3.25018C3.5 3.09547 3.43854 2.9471 3.32915 2.8377C3.21975 2.7283 3.07138 2.66684 2.91667 2.66684ZM10.5 3.25018C10.5 3.36555 10.5342 3.47833 10.5983 3.57426C10.6624 3.67019 10.7535 3.74496 10.8601 3.78911C10.9667 3.83326 11.084 3.84481 11.1971 3.8223C11.3103 3.79979 11.4142 3.74424 11.4958 3.66266C11.5774 3.58108 11.6329 3.47714 11.6555 3.36398C11.678 3.25082 11.6664 3.13354 11.6223 3.02695C11.5781 2.92036 11.5033 2.82925 11.4074 2.76515C11.3115 2.70106 11.1987 2.66684 11.0833 2.66684C10.9286 2.66684 10.7802 2.7283 10.6709 2.8377C10.5615 2.9471 10.5 3.09547 10.5 3.25018ZM2.91667 6.16684C2.80129 6.16684 2.68851 6.20106 2.59258 6.26515C2.49666 6.32925 2.42189 6.42036 2.37774 6.52695C2.33359 6.63354 2.32203 6.75082 2.34454 6.86398C2.36705 6.97714 2.42261 7.08108 2.50419 7.16266C2.58577 7.24424 2.68971 7.29979 2.80286 7.3223C2.91602 7.34481 3.03331 7.33326 3.1399 7.28911C3.24649 7.24496 3.33759 7.17019 3.40169 7.07426C3.46579 6.97833 3.5 6.86555 3.5 6.75018C3.5 6.59547 3.43854 6.4471 3.32915 6.3377C3.21975 6.2283 3.07138 6.16684 2.91667 6.16684ZM10.5 6.75018C10.5 6.86555 10.5342 6.97833 10.5983 7.07426C10.6624 7.17019 10.7535 7.24496 10.8601 7.28911C10.9667 7.33326 11.084 7.34481 11.1971 7.3223C11.3103 7.29979 11.4142 7.24424 11.4958 7.16266C11.5774 7.08108 11.6329 6.97714 11.6555 6.86398C11.678 6.75082 11.6664 6.63354 11.6223 6.52695C11.5781 6.42036 11.5033 6.32925 11.4074 6.26515C11.3115 6.20106 11.1987 6.16684 11.0833 6.16684C10.9286 6.16684 10.7802 6.2283 10.6709 6.3377C10.5615 6.4471 10.5 6.59547 10.5 6.75018Z" fill="white" stroke="white" stroke-width="0.1"/>
</svg>
