<svg width="14" height="14" viewBox="0 0 14 14" fill="none" xmlns="http://www.w3.org/2000/svg">
<path d="M13.7288 8.58986C13.608 8.44314 13.453 8.32832 13.2775 8.2555C13.1019 8.18267 12.9112 8.15407 12.722 8.17219C11.7056 8.25254 10.7191 8.55407 9.83148 9.05567C8.94386 9.55726 8.1766 10.2468 7.58341 11.076V8.11444C8.39806 7.97603 9.13757 7.55413 9.67128 6.92329C10.205 6.29245 10.4985 5.49326 10.5001 4.66694C10.5001 3.03769 9.36666 1.66161 8.25775 0.530523C7.92154 0.202016 7.47014 0.0180969 7.00008 0.0180969C6.53002 0.0180969 6.07862 0.202016 5.74241 0.530523C4.63349 1.66161 3.50008 3.03769 3.50008 4.66694C3.50161 5.49326 3.79517 6.29245 4.32888 6.92329C4.86259 7.55413 5.6021 7.97603 6.41675 8.11444V11.076C5.82356 10.2468 5.0563 9.55726 4.16868 9.05567C3.28106 8.55407 2.29453 8.25254 1.27816 8.17219C1.08898 8.15417 0.898266 8.18282 0.722732 8.25564C0.547198 8.32846 0.392203 8.44321 0.271328 8.58986C0.151227 8.73245 0.0676044 8.90212 0.0276668 9.08422C-0.0122708 9.26633 -0.00732497 9.45542 0.042078 9.63519C1.23149 13.9157 6.7615 14.0003 6.99658 14.0003H7.00358C7.23691 14.0003 12.7692 13.9157 13.9587 9.63519C14.0078 9.45536 14.0125 9.26629 13.9725 9.08421C13.9325 8.90214 13.8489 8.7325 13.7288 8.58986ZM4.66675 4.66694C4.66675 3.11877 6.60225 1.33086 6.61391 1.32094C6.401 1.86694 5.071 5.19194 6.41675 5.25027C6.57146 5.25027 6.71983 5.18881 6.82922 5.07942C6.93862 4.97002 7.00008 4.82165 7.00008 4.66694C7.04411 3.62944 7.29333 2.61096 7.73333 1.67036C8.56808 2.56286 9.33341 3.59011 9.33341 4.66694C9.33341 5.28578 9.08758 5.87927 8.64999 6.31685C8.21241 6.75444 7.61892 7.00027 7.00008 7.00027C6.38124 7.00027 5.78775 6.75444 5.35016 6.31685C4.91258 5.87927 4.66675 5.28578 4.66675 4.66694ZM1.17024 9.33361C2.22126 9.41873 3.23117 9.77981 4.09791 10.3803C4.96465 10.9809 5.65749 11.7996 6.10641 12.7537C4.64983 12.5519 1.86674 11.8419 1.17024 9.33361ZM7.90133 12.7525C8.35391 11.8011 9.04695 10.9842 9.91194 10.3826C10.7769 9.78109 11.7839 9.41568 12.8334 9.32252C12.1369 11.832 9.36025 12.5484 7.90133 12.7525Z" fill="white" stroke="white" stroke-width="0.2"/>
</svg>
