<svg width="16" height="16" viewBox="0 0 16 16" fill="none" xmlns="http://www.w3.org/2000/svg">
<g clip-path="url(#clip0_2576_5804)">
<path fill-rule="evenodd" clip-rule="evenodd" d="M7.48721 0.541958C7.48721 0.235212 7.72128 0 7.99858 0C8.27587 0 8.50995 0.235212 8.50995 0.541958V1.22283C8.50995 1.29772 8.57086 1.35842 8.646 1.35842H13.1811C13.995 1.35842 14.6668 2.05216 14.6668 2.91671V14.4417C14.6668 15.3064 13.9948 16 13.1843 16H2.816C2.00554 16 1.3335 15.3064 1.3335 14.4417V2.91671C1.3335 2.05198 2.00554 1.35842 2.816 1.35842H7.35115C7.42629 1.35842 7.48721 1.29772 7.48721 1.22283V0.541958ZM4.91696 2.44234C4.87247 2.44234 4.83078 2.46402 4.80534 2.5004C4.7799 2.53678 4.77392 2.58326 4.78932 2.62487L5.39548 4.26228C5.41521 4.31556 5.46615 4.35094 5.52313 4.35094H10.474C10.531 4.35094 10.5819 4.31556 10.6017 4.26228L11.2078 2.62487C11.2232 2.58326 11.2173 2.53678 11.1918 2.5004C11.1664 2.46402 11.1247 2.44234 11.0802 2.44234H4.91696ZM2.816 2.44566C2.55695 2.44566 2.35624 2.66547 2.35624 2.92003V14.445C2.35624 14.6996 2.55695 14.9194 2.816 14.9194H13.1811C13.4402 14.9194 13.6409 14.6996 13.6409 14.445C13.6409 14.435 13.6398 14.4252 13.6377 14.4158V2.92003C13.6377 2.66547 13.437 2.44566 13.178 2.44566H12.4671C12.4101 2.44566 12.3591 2.48109 12.3394 2.53442L11.3936 5.09516L11.3934 5.09588C11.3166 5.30745 11.1246 5.4415 10.9183 5.4415H5.07564C4.86937 5.4415 4.67736 5.30745 4.6006 5.09588L3.65458 2.53442C3.63489 2.48109 3.58392 2.44566 3.5269 2.44566H2.816ZM4.61389 8.21418C4.61389 7.90743 4.84797 7.67222 5.12526 7.67222H11.0536C11.3309 7.67222 11.565 7.90743 11.565 8.21418C11.565 8.52048 11.3282 8.75614 11.0536 8.75614H5.12526C4.84797 8.75614 4.61389 8.52093 4.61389 8.21418ZM4.61389 11.6817C4.61389 11.375 4.84797 11.1398 5.12526 11.1398H11.0536C11.3309 11.1398 11.565 11.375 11.565 11.6817C11.565 11.988 11.3282 12.2237 11.0536 12.2237H5.12526C4.84797 12.2237 4.61389 11.9885 4.61389 11.6817Z" fill="white"/>
</g>
<defs>
<clipPath id="clip0_2576_5804">
<rect width="16" height="16" fill="white"/>
</clipPath>
</defs>
</svg>
