<svg width="14" height="14" viewBox="0 0 14 14" fill="none" xmlns="http://www.w3.org/2000/svg">
<path d="M7 5.83308C6.2133 5.83282 5.42853 5.91099 4.65733 6.06641L4.65383 4.7335L7.57575 3.5225C7.75373 3.43206 7.90552 3.29746 8.01661 3.13159C8.1277 2.96571 8.19436 2.77411 8.21022 2.5751C8.22608 2.37609 8.19061 2.17635 8.1072 1.99497C8.0238 1.81359 7.89524 1.65665 7.73383 1.53916C7.71531 1.52515 7.69582 1.51248 7.6755 1.50125L5.19167 0.123412C5.01371 0.0337402 4.81576 -0.00885622 4.61667 -0.000316599C4.41758 0.00822302 4.224 0.0676141 4.05438 0.172195C3.88476 0.276775 3.74475 0.423059 3.6477 0.597101C3.55066 0.771143 3.49981 0.967142 3.5 1.16641V6.36625C1.39475 7.06333 0 8.37641 0 9.91641C0 12.206 3.07475 13.9997 7 13.9997C10.9253 13.9997 14 12.206 14 9.91641C14 7.62683 10.9253 5.83308 7 5.83308ZM7.04258 2.48183L4.65092 3.4735L4.64508 1.15708L7.04258 2.48183ZM7 12.8331C3.83833 12.8331 1.16667 11.4972 1.16667 9.91641C1.16667 8.98658 2.09475 8.14366 3.5 7.60525V9.91641C3.5 10.0711 3.56146 10.2195 3.67085 10.3289C3.78025 10.4383 3.92862 10.4997 4.08333 10.4997C4.23804 10.4997 4.38642 10.4383 4.49581 10.3289C4.60521 10.2195 4.66667 10.0711 4.66667 9.91641L4.66025 7.25641C5.42828 7.0846 6.21299 6.99852 7 6.99975C10.1617 6.99975 12.8333 8.33558 12.8333 9.91641C12.8333 11.4972 10.1617 12.8331 7 12.8331ZM9.91667 9.91641C9.91667 10.1472 9.84824 10.3727 9.72005 10.5646C9.59185 10.7564 9.40964 10.906 9.19646 10.9943C8.98328 11.0826 8.74871 11.1057 8.52239 11.0607C8.29608 11.0156 8.0882 10.9045 7.92504 10.7414C7.76188 10.5782 7.65077 10.3703 7.60575 10.144C7.56073 9.91771 7.58384 9.68313 7.67214 9.46995C7.76044 9.25677 7.90998 9.07456 8.10183 8.94636C8.29369 8.81817 8.51925 8.74975 8.75 8.74975C9.05942 8.74975 9.35616 8.87266 9.57496 9.09145C9.79375 9.31025 9.91667 9.60699 9.91667 9.91641Z" fill="white" stroke="white" stroke-width="0.2"/>
</svg>
