<svg width="64" height="64" viewBox="0 0 64 64" fill="none" xmlns="http://www.w3.org/2000/svg">
<circle cx="32" cy="32" r="32" fill="url(#paint0_linear_2542_8661)"/>
<g clip-path="url(#clip0_2542_8661)">
<path d="M42 20H37C36.4696 20 35.9609 20.2107 35.5858 20.5858C35.2107 20.9609 35 21.4696 35 22V28.948C35.0005 29.334 35.1099 29.712 35.3156 30.0386C35.5213 30.3652 35.815 30.6271 36.163 30.7942C36.5109 30.9613 36.8989 31.0269 37.2824 30.9833C37.666 30.9398 38.0294 30.7889 38.331 30.548L39.5 29.613L40.669 30.549C40.9707 30.7899 41.3342 30.9408 41.7178 30.9844C42.1014 31.0279 42.4895 30.9622 42.8375 30.795C43.1855 30.6278 43.4792 30.3657 43.6848 30.039C43.8905 29.7122 43.9997 29.3341 44 28.948V22C44 21.4696 43.7893 20.9609 43.4142 20.5858C43.0391 20.2107 42.5304 20 42 20V20ZM41.919 28.987L40.125 27.552C39.9476 27.41 39.7272 27.3326 39.5 27.3326C39.2728 27.3326 39.0524 27.41 38.875 27.552L37 28.948V22H42L41.919 28.987ZM44 34V39C43.9984 40.3256 43.4711 41.5964 42.5338 42.5338C41.5964 43.4711 40.3256 43.9984 39 44H25C23.6744 43.9984 22.4036 43.4711 21.4662 42.5338C20.5289 41.5964 20.0016 40.3256 20 39V28C20.0016 26.6744 20.5289 25.4036 21.4662 24.4662C22.4036 23.5289 23.6744 23.0016 25 23H32C32.2652 23 32.5196 23.1054 32.7071 23.2929C32.8946 23.4804 33 23.7348 33 24C33 24.2652 32.8946 24.5196 32.7071 24.7071C32.5196 24.8946 32.2652 25 32 25H25C24.4562 25.0015 23.9231 25.1513 23.4581 25.4332C22.9931 25.7151 22.6138 26.1185 22.361 26.6L29.878 34.118C30.4499 34.663 31.2095 34.967 31.9995 34.967C32.7895 34.967 33.5491 34.663 34.121 34.118L34.979 33.281C35.0729 33.1891 35.184 33.1165 35.3059 33.0675C35.4278 33.0186 35.5582 32.9941 35.6896 32.9954C35.821 32.9968 35.9508 33.0241 36.0717 33.0757C36.1926 33.1272 36.3021 33.2021 36.394 33.296C36.4859 33.3899 36.5585 33.501 36.6075 33.6229C36.6564 33.7448 36.6809 33.8752 36.6796 34.0066C36.6782 34.138 36.6509 34.2678 36.5993 34.3887C36.5478 34.5096 36.4729 34.6191 36.379 34.711L35.53 35.54C34.5884 36.4678 33.3192 36.9872 31.9974 36.9857C30.6755 36.9842 29.4075 36.4619 28.468 35.532L22 29.071V39C22 39.7956 22.3161 40.5587 22.8787 41.1213C23.4413 41.6839 24.2044 42 25 42H39C39.7956 42 40.5587 41.6839 41.1213 41.1213C41.6839 40.5587 42 39.7956 42 39V34C42 33.7348 42.1054 33.4804 42.2929 33.2929C42.4804 33.1054 42.7348 33 43 33C43.2652 33 43.5196 33.1054 43.7071 33.2929C43.8946 33.4804 44 33.7348 44 34Z" fill="white"/>
</g>
<defs>
<linearGradient id="paint0_linear_2542_8661" x1="32" y1="-35.9892" x2="32" y2="72.065" gradientUnits="userSpaceOnUse">
<stop stop-color="#9B1B7F"/>
<stop offset="1" stop-color="#D64951"/>
</linearGradient>
<clipPath id="clip0_2542_8661">
<rect width="24" height="24" fill="white" transform="translate(20 20)"/>
</clipPath>
</defs>
</svg>
