<svg width="38" height="33" viewBox="0 0 38 33" fill="none" xmlns="http://www.w3.org/2000/svg">
<path fill-rule="evenodd" clip-rule="evenodd" d="M2.67979 13.21L2.67984 15.1323C2.67994 17.6956 2.68003 20.259 2.67863 22.8227C2.67863 22.8604 2.67762 22.8977 2.67664 22.9342L2.67663 22.9345C2.66893 23.2204 2.66245 23.4613 3.14465 23.4539C4.07773 23.44 5.01122 23.4442 5.94459 23.4484H5.94509H5.94517C7.23814 23.4542 8.53087 23.4601 9.82201 23.4177C13.0824 23.3108 15.1341 21.191 15.1868 17.883C15.2361 14.7984 15.2338 11.7119 15.1892 8.62664C15.1388 5.16138 13.0191 3.07363 9.59572 3.04806C8.70203 3.04154 7.80819 3.0433 6.91443 3.04507L6.91402 3.04507C5.69909 3.04753 4.48424 3.04991 3.26951 3.03148C2.75717 3.02373 2.66573 3.19 2.66866 3.66857C2.68464 6.07652 2.6828 8.48485 2.68097 10.893L2.68095 10.9243C2.68037 11.6862 2.67979 12.4481 2.67979 13.21ZM0.334444 13.259L0.334247 10.1472L0.334243 10.1081C0.334009 7.52782 0.333776 4.94729 0.335027 2.36676C0.336202 1.0598 0.711951 0.690473 2.02034 0.686942C2.86004 0.684716 3.69975 0.681492 4.53947 0.678268L4.53979 0.678267C6.15972 0.672125 7.77973 0.665985 9.39996 0.666752C13.9599 0.668518 17.1822 3.48479 17.4882 8.09672C17.7268 11.6867 17.7661 15.3123 17.4361 18.9053C17.0802 22.7821 14.042 25.6185 10.2019 25.7379C8.00807 25.8058 5.81127 25.7905 3.61506 25.7753L3.60935 25.7752H3.60809H3.60684C2.92374 25.7705 2.2407 25.7657 1.55783 25.7634C0.721916 25.7605 0.339718 25.2854 0.337369 24.2938C0.332351 22.3131 0.333305 20.3325 0.334258 18.3518L0.334262 18.3442C0.334649 17.5509 0.335027 16.7576 0.335027 15.9642C0.335027 15.0629 0.335027 14.161 0.334444 13.259ZM28.5343 29.8024C24.8495 29.7971 21.8054 26.6352 21.8236 22.832C21.8424 18.9517 24.8718 15.7613 28.539 15.7601C32.2854 15.7589 35.3401 18.9374 35.3272 22.8225C35.3143 26.6667 32.2572 29.8083 28.5343 29.8024ZM22.3892 16.2531L22.3856 16.2564C22.2252 16.402 22.0635 16.5485 21.8993 16.6941C21.7867 16.529 21.8015 16.3527 21.8159 16.182C21.8208 16.1245 21.8256 16.0676 21.8254 16.0119C21.8202 14.1138 21.8215 12.2157 21.8228 10.3179L21.8228 10.2539V10.249L21.8237 8.8889C21.8237 8.85065 21.8239 8.81202 21.8242 8.77367L21.8243 8.7534V8.75325C21.8251 8.65596 21.8259 8.55867 21.8231 8.46138C21.7973 7.55822 21.3283 7.01194 20.6009 7.0339C19.9068 7.05532 19.4678 7.59384 19.466 8.46315C19.4578 12.4996 19.4519 16.5362 19.4554 20.5727C19.4557 20.7877 19.4547 21.0029 19.4538 21.218L19.4538 21.2213V21.2224L19.4538 21.2246C19.45 22.1243 19.4462 23.0251 19.5246 23.9175C19.9789 29.0732 24.791 32.8586 29.8294 32.0599C36.8185 30.9519 40.0385 22.6676 35.6942 16.9649C33.1952 13.6837 28.2091 11.4552 23.4269 15.3451C23.0723 15.6336 22.7327 15.9416 22.3892 16.2531Z" fill="url(#paint0_linear_2576_7044)"/>
<defs>
<linearGradient id="paint0_linear_2576_7044" x1="19.0001" y1="-17.0466" x2="19.0001" y2="36.136" gradientUnits="userSpaceOnUse">
<stop stop-color="#9B1B7F"/>
<stop offset="1" stop-color="#D64951"/>
</linearGradient>
</defs>
</svg>
