<svg width="38" height="33" fill="none" xmlns="http://www.w3.org/2000/svg">
    <path fill-rule="evenodd" clip-rule="evenodd" d="M2.68 13.21v1.922l-.001 7.69-.002.112c-.008.286-.015.527.468.52.933-.014 1.866-.01 2.8-.006 1.293.006 2.586.012 3.877-.03 3.26-.107 5.312-2.227 5.365-5.535.05-3.085.047-6.171.002-9.256-.05-3.466-2.17-5.553-5.593-5.579-.894-.006-1.788-.005-2.682-.003-1.215.003-2.43.005-3.644-.014-.513-.007-.604.159-.601.638.016 2.408.014 4.816.012 7.224v.031L2.68 13.21zm-2.346.049V10.108l.001-7.741C.336 1.06.712.69 2.02.687L4.54.678C6.16.672 7.78.666 9.4.667c4.56.002 7.782 2.818 8.088 7.43.239 3.59.278 7.215-.052 10.808-.356 3.877-3.394 6.713-7.234 6.833-2.194.068-4.39.053-6.587.037h-.008c-.683-.005-1.366-.01-2.05-.012-.835-.003-1.217-.478-1.22-1.47-.005-1.98-.004-3.96-.003-5.941v-.008l.001-2.38V13.26zm28.2 16.543c-3.684-.005-6.729-3.167-6.71-6.97.018-3.88 3.048-7.07 6.715-7.072 3.746-.001 6.801 3.177 6.788 7.063-.013 3.844-3.07 6.985-6.793 6.98zM22.39 16.253l-.003.003c-.16.146-.322.293-.487.438-.112-.165-.098-.341-.083-.512.005-.057.01-.114.01-.17-.006-1.898-.005-3.796-.003-5.694V8.889l.001-.115v-.02c.001-.098.002-.195 0-.293-.027-.903-.496-1.45-1.223-1.427-.694.021-1.133.56-1.135 1.43-.008 4.036-.014 8.072-.01 12.109l-.002.645v.007c-.004.9-.008 1.8.07 2.692.455 5.156 5.267 8.942 10.305 8.143 6.99-1.108 10.21-9.392 5.865-15.095-2.499-3.281-7.485-5.51-12.267-1.62-.355.289-.694.597-1.038.908z" fill="url(#a)"/>
    <defs>
        <linearGradient id="a" x1="19" y1="-17.047" x2="19" y2="36.136" gradientUnits="userSpaceOnUse">
            <stop stop-color="#9B1B7F"/>
            <stop offset="1" stop-color="#D64951"/>
        </linearGradient>
    </defs>
</svg>
