<svg width="14" height="14" viewBox="0 0 14 14" fill="none" xmlns="http://www.w3.org/2000/svg">
<path d="M7 14C6.38116 14 5.78767 13.7542 5.35008 13.3166C4.9125 12.879 4.66667 12.2855 4.66667 11.6667V9.33333H2.33333C1.71449 9.33333 1.121 9.0875 0.683417 8.64992C0.245833 8.21233 0 7.61884 0 7C0 6.38116 0.245833 5.78767 0.683417 5.35008C1.121 4.9125 1.71449 4.66667 2.33333 4.66667H4.66667V2.33333C4.66667 1.71449 4.9125 1.121 5.35008 0.683417C5.78767 0.245833 6.38116 0 7 0C7.61884 0 8.21233 0.245833 8.64992 0.683417C9.0875 1.121 9.33333 1.71449 9.33333 2.33333V4.66667H11.6667C12.2855 4.66667 12.879 4.9125 13.3166 5.35008C13.7542 5.78767 14 6.38116 14 7C14 7.61884 13.7542 8.21233 13.3166 8.64992C12.879 9.0875 12.2855 9.33333 11.6667 9.33333H9.33333V11.6667C9.33333 12.2855 9.0875 12.879 8.64992 13.3166C8.21233 13.7542 7.61884 14 7 14ZM2.33333 5.83333C2.02391 5.83333 1.72717 5.95625 1.50838 6.17504C1.28958 6.39383 1.16667 6.69058 1.16667 7C1.16667 7.30942 1.28958 7.60616 1.50838 7.82496C1.72717 8.04375 2.02391 8.16667 2.33333 8.16667H5.25C5.40471 8.16667 5.55308 8.22812 5.66248 8.33752C5.77187 8.44692 5.83333 8.59529 5.83333 8.75V11.6667C5.83333 11.9761 5.95625 12.2728 6.17504 12.4916C6.39383 12.7104 6.69058 12.8333 7 12.8333C7.30942 12.8333 7.60616 12.7104 7.82496 12.4916C8.04375 12.2728 8.16667 11.9761 8.16667 11.6667V8.75C8.16667 8.59529 8.22812 8.44692 8.33752 8.33752C8.44692 8.22812 8.59529 8.16667 8.75 8.16667H11.6667C11.9761 8.16667 12.2728 8.04375 12.4916 7.82496C12.7104 7.60616 12.8333 7.30942 12.8333 7C12.8333 6.69058 12.7104 6.39383 12.4916 6.17504C12.2728 5.95625 11.9761 5.83333 11.6667 5.83333H8.75C8.59529 5.83333 8.44692 5.77187 8.33752 5.66248C8.22812 5.55308 8.16667 5.40471 8.16667 5.25V2.33333C8.16667 2.02391 8.04375 1.72717 7.82496 1.50838C7.60616 1.28958 7.30942 1.16667 7 1.16667C6.69058 1.16667 6.39383 1.28958 6.17504 1.50838C5.95625 1.72717 5.83333 2.02391 5.83333 2.33333V5.25C5.83333 5.40471 5.77187 5.55308 5.66248 5.66248C5.55308 5.77187 5.40471 5.83333 5.25 5.83333H2.33333Z" fill="white" stroke="white" stroke-width="0.2"/>
</svg>
