<svg width="12" height="14" viewBox="0 0 12 14" fill="none" xmlns="http://www.w3.org/2000/svg">
<path d="M7.74997 13.9999C6.76968 13.9991 5.80043 13.7929 4.90479 13.3944C4.00915 12.9959 3.207 12.414 2.55013 11.6864C1.8883 10.9579 1.38896 10.0969 1.08524 9.16073C0.781512 8.22451 0.680352 7.23441 0.788467 6.25612C0.962769 4.73363 1.62695 3.30897 2.68101 2.19662C3.73507 1.08427 5.12197 0.344451 6.63288 0.0885393C7.60963 -0.0623254 8.6064 -0.0217097 9.56764 0.208123C9.81933 0.27279 10.0492 0.403542 10.2334 0.586847C10.4176 0.770151 10.5495 0.999351 10.6154 1.25073C10.6813 1.50211 10.6788 1.76653 10.6083 2.01663C10.5377 2.26674 10.4016 2.49345 10.214 2.67329C7.55397 5.10346 7.78497 8.88229 10.6847 11.0791C10.8897 11.24 11.0479 11.453 11.1427 11.6958C11.2376 11.9385 11.2656 12.2023 11.2239 12.4596C11.1822 12.7169 11.0723 12.9583 10.9057 13.1587C10.739 13.3591 10.5217 13.5112 10.2764 13.5991C9.46077 13.8656 8.60801 14.0009 7.74997 13.9999ZM7.7943 1.16654C7.46679 1.16575 7.13971 1.19052 6.81605 1.24062C5.55811 1.45337 4.4033 2.06898 3.52547 2.99478C2.64765 3.92058 2.0943 5.10648 1.94872 6.37396C1.85772 7.19065 1.94158 8.01736 2.19473 8.79914C2.44788 9.58092 2.86453 10.2999 3.41697 10.9082C4.22566 11.7713 5.26747 12.3813 6.41599 12.6639C7.5645 12.9466 8.77038 12.8899 9.8873 12.5007C9.93545 12.4827 9.97797 12.4522 10.0106 12.4125C10.0432 12.3727 10.0647 12.325 10.0729 12.2743C10.0811 12.2235 10.0758 12.1715 10.0574 12.1235C10.0391 12.0754 10.0084 12.0331 9.96839 12.0008C6.5098 9.38862 6.23505 4.71729 9.41539 1.82221C9.45188 1.78832 9.4782 1.74493 9.49139 1.69691C9.50458 1.64889 9.50412 1.59814 9.49005 1.55037C9.47793 1.49967 9.45218 1.45325 9.41557 1.41613C9.37897 1.37902 9.33291 1.35262 9.28239 1.33979C8.79516 1.22226 8.2955 1.16409 7.7943 1.16654Z" fill="white" stroke="white" stroke-width="0.2"/>
</svg>
