<svg width="12" height="14" viewBox="0 0 12 14" fill="none" xmlns="http://www.w3.org/2000/svg">
<path fill-rule="evenodd" clip-rule="evenodd" d="M4 3.66668C4 2.56211 4.89543 1.66668 6 1.66668C7.10457 1.66668 8 2.56211 8 3.66668C8 4.77125 7.10457 5.66668 6 5.66668C4.89543 5.66668 4 4.77125 4 3.66668ZM6 0.333344C4.15905 0.333344 2.66667 1.82573 2.66667 3.66668C2.66667 5.50763 4.15905 7.00001 6 7.00001C7.84095 7.00001 9.33333 5.50763 9.33333 3.66668C9.33333 1.82573 7.84095 0.333344 6 0.333344ZM3.33333 8.33334C2.44928 8.33334 1.60143 8.68453 0.976311 9.30966C0.351189 9.93478 0 10.7826 0 11.6667V13C0 13.3682 0.298477 13.6667 0.666667 13.6667C1.03486 13.6667 1.33333 13.3682 1.33333 13V11.6667C1.33333 11.1362 1.54405 10.6275 1.91912 10.2525C2.29419 9.87739 2.8029 9.66668 3.33333 9.66668H8.66667C9.1971 9.66668 9.70581 9.87739 10.0809 10.2525C10.456 10.6275 10.6667 11.1362 10.6667 11.6667V13C10.6667 13.3682 10.9651 13.6667 11.3333 13.6667C11.7015 13.6667 12 13.3682 12 13V11.6667C12 10.7826 11.6488 9.93478 11.0237 9.30966C10.3986 8.68453 9.55072 8.33334 8.66667 8.33334H3.33333Z" fill="white"/>
</svg>
