<svg width="13" height="14" viewBox="0 0 13 14" fill="none" xmlns="http://www.w3.org/2000/svg">
<path d="M8.33366 3.5C8.48837 3.5 8.63674 3.56146 8.74614 3.67085C8.85553 3.78025 8.91699 3.92862 8.91699 4.08333C8.91699 4.23804 8.85553 4.38642 8.74614 4.49581C8.63674 4.60521 8.48837 4.66667 8.33366 4.66667H3.66699C3.51228 4.66667 3.36391 4.60521 3.25451 4.49581C3.14512 4.38642 3.08366 4.23804 3.08366 4.08333C3.08366 3.92862 3.14512 3.78025 3.25451 3.67085C3.36391 3.56146 3.51228 3.5 3.66699 3.5H8.33366ZM12.8294 13.8291C12.72 13.9384 12.5717 13.9999 12.417 13.9999C12.2623 13.9999 12.114 13.9384 12.0046 13.8291L10.6005 12.425C10.1847 12.6904 9.70195 12.832 9.20866 12.8333C8.68948 12.8333 8.18197 12.6794 7.75029 12.3909C7.31861 12.1025 6.98215 11.6925 6.78347 11.2129C6.58479 10.7332 6.53281 10.2054 6.6341 9.69622C6.73538 9.18702 6.98539 8.71929 7.3525 8.35218C7.71962 7.98506 8.18735 7.73506 8.69655 7.63377C9.20575 7.53249 9.73355 7.58447 10.2132 7.78315C10.6929 7.98183 11.1028 8.31828 11.3913 8.74996C11.6797 9.18164 11.8337 9.68916 11.8337 10.2083C11.8323 10.7016 11.6907 11.1844 11.4253 11.6002L12.8294 13.0042C12.9388 13.1136 13.0002 13.262 13.0002 13.4167C13.0002 13.5713 12.9388 13.7197 12.8294 13.8291ZM9.20866 11.6667C9.49709 11.6667 9.77904 11.5811 10.0189 11.4209C10.2587 11.2606 10.4456 11.0329 10.556 10.7664C10.6664 10.4999 10.6952 10.2067 10.639 9.92383C10.5827 9.64094 10.4438 9.38109 10.2399 9.17714C10.0359 8.97318 9.77605 8.83429 9.49317 8.77802C9.21028 8.72175 8.91705 8.75063 8.65058 8.86101C8.3841 8.97139 8.15634 9.15831 7.9961 9.39813C7.83586 9.63795 7.75033 9.9199 7.75033 10.2083C7.75033 10.5951 7.90397 10.966 8.17746 11.2395C8.45095 11.513 8.82188 11.6667 9.20866 11.6667ZM6.58366 12.8333H3.08366C2.61953 12.8333 2.17441 12.649 1.84622 12.3208C1.51803 11.9926 1.33366 11.5475 1.33366 11.0833V2.91667C1.33366 2.45254 1.51803 2.00742 1.84622 1.67923C2.17441 1.35104 2.61953 1.16667 3.08366 1.16667H10.0837C10.2384 1.16667 10.3867 1.22812 10.4961 1.33752C10.6055 1.44692 10.667 1.59529 10.667 1.75V6.41667C10.667 6.57138 10.7284 6.71975 10.8378 6.82915C10.9472 6.93854 11.0956 7 11.2503 7C11.405 7 11.5534 6.93854 11.6628 6.82915C11.7722 6.71975 11.8337 6.57138 11.8337 6.41667V1.75C11.8337 1.28587 11.6493 0.840752 11.3211 0.512563C10.9929 0.184374 10.5478 0 10.0837 0L3.08366 0C2.3104 0.00092625 1.56907 0.308514 1.02229 0.855295C0.475507 1.40208 0.167918 2.1434 0.166992 2.91667V11.0833C0.167918 11.8566 0.475507 12.5979 1.02229 13.1447C1.56907 13.6915 2.3104 13.9991 3.08366 14H6.58366C6.73837 14 6.88674 13.9385 6.99614 13.8291C7.10553 13.7197 7.16699 13.5714 7.16699 13.4167C7.16699 13.262 7.10553 13.1136 6.99614 13.0042C6.88674 12.8948 6.73837 12.8333 6.58366 12.8333Z" fill="#6F7C89" stroke="#6F7C89" stroke-width="0.2"/>
</svg>
